#!OML:ASF X:\für Bonn\!DataBase\2005_08_11_Bastian_Final\c3d\Bastian.ASF
:FULLY-SPECIFIED
:DEGREES
77
root 5.37536 16.6318 -3.21199 183.363 80.3671 -161.04
lowerback 39.0622 -6.18103 8.11652
upperback 18.7359 -1.22913 4.06861
thorax 1.79572 1.14908 0.615184
lowerneck -1.66879 -12.3015 -5.30457
upperneck -1.14226 -16.4881 15.6684
head 1.72049 -8.18754 4.9626
rclavicle -3.97569e-014 -3.49861e-014
rhumerus 10.7597 11.6065 -65.4647
rradius 26.59
rwrist -1.3301
rhand -28.8877 -1.45779
rfingers 7.12502
rthumb -2.24327 -31.4257
lclavicle -3.97569e-014 -3.49861e-014
lhumerus -2.62512 -27.2761 83.2041
lradius 46.1529
lwrist 27.0296
lhand -14.7623 -9.4695
lfingers 7.12502
lthumb 11.394 20.2009
rfemur -21.5607 -5.58733 19.5916
rtibia 55.9403
rfoot -16.6644 -2.40825
rtoes -17.7278
lfemur -14.6791 4.22249 -21.4082
ltibia 40.4077
lfoot -0.465707 -10.0206
ltoes 4.48563
78
root 5.38853 16.6024 -3.22577 182.66 80.296 -161.853
lowerback 39.973 -6.37219 8.31657
upperback 18.8097 -1.17977 4.14054
thorax 1.61832 1.21367 0.599435
lowerneck -1.84638 -12.4151 -5.32272
upperneck -1.41823 -16.617 15.8536
head 1.70079 -8.2574 5.006
rclavicle -1.43125e-014 -3.49861e-014
rhumerus 11.4558 11.3679 -64.908
rradius 26.4659
rwrist -1.30364
rhand -28.8235 -1.51569
rfingers 7.12502
rthumb -2.18124 -31.4843
lclavicle -1.43125e-014 -3.49861e-014
lhumerus -2.21913 -27.7421 82.8066
lradius 47.5668
lwrist 27.2577
lhand -14.7199 -9.65278
lfingers 7.12502
lthumb 11.4349 20.0154
rfemur -21.8387 -5.13684 19.4198
rtibia 54.6857
rfoot -16.7883 -2.71913
rtoes -19.4076
lfemur -15.1181 4.30189 -21.6156
ltibia 41.0837
lfoot -0.737654 -10.1629
ltoes 4.94644
79
root 5.39962 16.573 -3.23765 181.995 80.2449 -162.628
lowerback 40.8881 -6.55282 8.48289
upperback 18.9011 -1.11913 4.2242
thorax 1.46895 1.28265 0.610214
lowerneck -2.09531 -12.5301 -5.26472
upperneck -1.69938 -16.7455 15.9181
head 1.67367 -8.32588 4.99964
rclavicle -3.65764e-014 -4.77083e-015
rhumerus 12.2202 11.1319 -64.3322
rradius 26.3232
rwrist -1.28794
rhand -28.8289 -1.5494
rfingers 7.12502
rthumb -2.18646 -31.5179
lclavicle -3.65764e-014 -4.77083e-015
lhumerus -1.77199 -28.0907 82.4078
lradius 48.9302
lwrist 27.3733
lhand -14.6138 -9.76608
lfingers 7.12502
lthumb 11.5372 19.8964
rfemur -22.1464 -4.69129 19.2546
rtibia 53.5726
rfoot -16.7603 -2.98883
rtoes -21.192
lfemur -15.5535 4.41266 -21.8082
ltibia 41.7506
lfoot -0.985465 -10.3278
ltoes 5.17058
80
root 5.40944 16.543 -3.25065 181.485 80.2057 -163.259
lowerback 41.801 -6.73865 8.7025
upperback 18.9745 -1.04137 4.30191
thorax 1.31074 1.36265 0.582737
lowerneck -2.25446 -12.6695 -5.18943
upperneck -2.07028 -16.8983 15.972
head 1.60547 -8.41489 4.99557
rclavicle -3.18055e-015 3.97569e-014
rhumerus 12.9246 10.8205 -63.7597
rradius 26.2142
rwrist -1.22299
rhand -28.7806 -1.61635
rfingers 7.12502
rthumb -2.13986 -31.5854
lclavicle -3.18055e-015 3.97569e-014
lhumerus -1.30627 -28.4373 82.0175
lradius 50.2218
lwrist 27.3456
lhand -14.4669 -9.92678
lfingers 7.12502
lthumb 11.6789 19.7277
rfemur -22.4964 -4.25529 19.1112
rtibia 52.6204
rfoot -16.5856 -3.15048
rtoes -22.9743
lfemur -16.0169 4.49255 -21.9827
ltibia 42.431
lfoot -1.21465 -10.4379
ltoes 5.87547
81
root 5.41749 16.5109 -3.26181 180.706 80.1878 -164.167
lowerback 42.6937 -6.92209 8.8689
upperback 19.0815 -0.977127 4.34129
thorax 1.2032 1.43815 0.54615
lowerneck -2.47026 -12.7807 -5.07326
upperneck -2.48028 -17.0089 16.0486
head 1.52923 -8.48231 4.99309
rclavicle 6.36111e-014 8.74653e-014
rhumerus 13.7219 10.5524 -63.1933
rradius 26.0651
rwrist -1.24529
rhand -28.7776 -1.63034
rfingers 7.12502
rthumb -2.13694 -31.5994
lclavicle 6.36111e-014 8.74653e-014
lhumerus -0.77596 -28.7684 81.5393
lradius 51.4503
lwrist 27.2959
lhand -14.4001 -10.1814
lfingers 7.12502
lthumb 11.7433 19.4694
rfemur -22.8877 -3.83367 18.9128
rtibia 51.8689
rfoot -16.3658 -3.13357
rtoes -24.4295
lfemur -16.5026 4.60686 -22.2117
ltibia 43.1331
lfoot -1.47614 -10.5723
ltoes 6.09223
82
root 5.42403 16.4747 -3.27146 180.142 80.1955 -164.867
lowerback 43.6024 -7.09207 9.01824
upperback 19.1938 -0.891735 4.41029
thorax 1.10765 1.5214 0.542984
lowerneck -2.74451 -12.8989 -4.95815
upperneck -2.86601 -17.1315 16.0501
head 1.46348 -8.55316 4.96392
rclavicle 5.56597e-014 5.08889e-014
rhumerus 14.5367 10.3338 -62.5701
rradius 25.9852
rwrist -1.36201
rhand -28.7647 -1.70228
rfingers 7.12502
rthumb -2.12442 -31.6714
lclavicle 5.56597e-014 5.08889e-014
lhumerus -0.21768 -29.0844 81.0501
lradius 52.6755
lwrist 27.1613
lhand -14.4157 -10.4098
lfingers 7.12502
lthumb 11.7283 19.2419
rfemur -23.3059 -3.42799 18.7661
rtibia 51.3384
rfoot -16.0705 -3.08216
rtoes -25.5332
lfemur -17.0325 4.77302 -22.396
ltibia 43.8799
lfoot -1.74168 -10.7336
ltoes 6.42315
83
root 5.42884 16.437 -3.27941 179.432 80.1809 -165.734
lowerback 44.4732 -7.26954 9.189
upperback 19.3095 -0.810069 4.44215
thorax 1.0343 1.60777 0.490866
lowerneck -3.00596 -13.0205 -4.77393
upperneck -3.26969 -17.2578 16.0829
head 1.38748 -8.62774 4.93579
rclavicle 3.18055e-015 -3.65764e-014
rhumerus 15.3521 9.96152 -62.0283
rradius 25.8123
rwrist -1.35548
rhand -28.8124 -1.63234
rfingers 7.12502
rthumb -2.17053 -31.601
lclavicle 3.18055e-015 -3.65764e-014
lhumerus 0.37986 -29.4131 80.4915
lradius 53.8841
lwrist 27.0086
lhand -14.4064 -10.6415
lfingers 7.12502
lthumb 11.7372 19.0096
rfemur -23.7396 -3.07373 18.5933
rtibia 51.0577
rfoot -15.7951 -3.00454
rtoes -26.0771
lfemur -17.6147 4.88866 -22.606
ltibia 44.6677
lfoot -1.99406 -10.8589
ltoes 6.91658
84
root 5.4327 16.3939 -3.28626 178.613 80.2097 -166.713
lowerback 46.3041 -7.58518 9.45812
upperback 18.5774 -0.655192 4.28771
thorax 0.887881 1.6956 0.434011
lowerneck -3.3323 -13.1265 -4.64917
upperneck -3.63667 -17.3669 16.1529
head 1.33966 -8.68896 4.92159
rclavicle -1.43125e-014 -4.77083e-014
rhumerus 16.221 9.61619 -61.4605
rradius 25.68
rwrist -1.34602
rhand -28.796 -1.65496
rfingers 7.12502
rthumb -2.15474 -31.6238
lclavicle -1.43125e-014 -4.77083e-014
lhumerus 0.980489 -29.6563 79.9403
lradius 55.0818
lwrist 26.7005
lhand -14.4597 -10.8923
lfingers 7.12502
lthumb 11.6858 18.7618
rfemur -24.2 -2.73361 18.4083
rtibia 51.0087
rfoot -15.4895 -3.01621
rtoes -26.6158
lfemur -18.227 5.04254 -22.842
ltibia 45.5053
lfoot -2.31966 -10.9973
ltoes 7.09475
85
root 5.43562 16.3499 -3.29236 177.757 80.2347 -167.759
lowerback 47.2303 -7.75805 9.58299
upperback 18.6243 -0.568119 4.28605
thorax 0.813812 1.77729 0.383495
lowerneck -3.54822 -13.2168 -4.51192
upperneck -4.04971 -17.4501 16.2394
head 1.25813 -8.74439 4.92213
rclavicle -7.95139e-014 -3.81667e-014
rhumerus 17.0555 9.29469 -60.9225
rradius 25.51
rwrist -1.36647
rhand -28.9103 -1.64702
rfingers 7.12502
rthumb -2.26508 -31.6147
lclavicle -7.95139e-014 -3.81667e-014
lhumerus 1.53956 -29.882 79.3837
lradius 56.254
lwrist 26.3775
lhand -14.5439 -11.1139
lfingers 7.12502
lthumb 11.6046 18.5448
rfemur -24.7206 -2.44307 18.2062
rtibia 51.1714
rfoot -15.2048 -3.03478
rtoes -26.7981
lfemur -18.8913 5.17207 -23.0943
ltibia 46.3695
lfoot -2.65107 -11.1146
ltoes 7.17997
86
root 5.4378 16.3026 -3.29849 177.134 80.2715 -168.599
lowerback 48.1334 -7.93993 9.73265
upperback 18.6736 -0.480222 4.29077
thorax 0.757446 1.86043 0.328784
lowerneck -3.81297 -13.297 -4.37585
upperneck -4.4348 -17.5227 16.2968
head 1.1887 -8.7916 4.91114
rclavicle -1.59028e-014 4.45278e-014
rhumerus 17.9351 8.93779 -60.3783
rradius 25.3268
rwrist -1.33389
rhand -28.9453 -1.61397
rfingers 7.12502
rthumb -2.2989 -31.5813
lclavicle -1.59028e-014 4.45278e-014
lhumerus 2.08979 -30.0411 78.8229
lradius 57.4063
lwrist 26.0277
lhand -14.6612 -11.3555
lfingers 7.12502
lthumb 11.4915 18.3095
rfemur -25.3295 -2.17338 18.0457
rtibia 51.5004
rfoot -14.8901 -3.01513
rtoes -26.7524
lfemur -19.6079 5.25412 -23.3086
ltibia 47.2641
lfoot -2.96632 -11.177
ltoes 7.64131
87
root 5.43867 16.2554 -3.30308 176.151 80.2924 -169.81
lowerback 49.0376 -8.11803 9.84239
upperback 18.7202 -0.402248 4.27332
thorax 0.705546 1.9378 0.271913
lowerneck -4.04672 -13.3694 -4.26162
upperneck -4.85825 -17.5801 16.4095
head 1.10891 -8.83418 4.9236
rclavicle 2.06736e-014 6.36111e-015
rhumerus 18.8309 8.61875 -59.812
rradius 25.1356
rwrist -1.35575
rhand -29.0262 -1.55417
rfingers 7.12502
rthumb -2.37698 -31.5207
lclavicle 2.06736e-014 6.36111e-015
lhumerus 2.62121 -30.2339 78.2118
lradius 58.5867
lwrist 25.6303
lhand -14.7782 -11.5352
lfingers 7.12502
lthumb 11.3787 18.1361
rfemur -25.9856 -1.95948 17.8201
rtibia 51.9645
rfoot -14.5433 -2.97383
rtoes -26.6633
lfemur -20.3411 5.33001 -23.5967
ltibia 48.1683
lfoot -3.29714 -11.2393
ltoes 7.79442
88
root 5.43874 16.2052 -3.30658 175.227 80.3092 -170.982
lowerback 49.9562 -8.30621 9.97099
upperback 18.7178 -0.328593 4.24291
thorax 0.608343 2.00904 0.193953
lowerneck -4.13656 -13.4344 -4.15521
upperneck -5.36426 -17.6173 16.5459
head 0.98269 -8.87715 4.95933
rclavicle 4.77083e-014 6.36111e-015
rhumerus 19.6411 8.3033 -59.2701
rradius 24.9752
rwrist -1.36649
rhand -29.1539 -1.52374
rfingers 7.12502
rthumb -2.50034 -31.4888
lclavicle 4.77083e-014 6.36111e-015
lhumerus 3.06955 -30.4118 77.6331
lradius 59.7064
lwrist 25.3402
lhand -14.8938 -11.829
lfingers 7.12502
lthumb 11.2672 17.8483
rfemur -26.6991 -1.788 17.6111
rtibia 52.5435
rfoot -14.181 -2.94323
rtoes -26.561
lfemur -21.1154 5.31917 -23.8802
ltibia 49.0906
lfoot -3.65847 -11.2358
ltoes 7.83556
89
root 5.43799 16.1548 -3.3105 174.288 80.3182 -172.202
lowerback 50.8734 -8.48818 10.0765
upperback 18.679 -0.258271 4.23713
thorax 0.479086 2.06923 0.152659
lowerneck -4.17209 -13.4771 -4.141
upperneck -5.87695 -17.6207 16.6985
head 0.85246 -8.90472 5.0189
rclavicle -2.70347e-014 -7.95139e-015
rhumerus 20.4625 7.91498 -58.7649
rradius 24.7628
rwrist -1.24566
rhand -29.2311 -1.42161
rfingers 7.12502
rthumb -2.5749 -31.3858
lclavicle -2.70347e-014 -7.95139e-015
lhumerus 3.4091 -30.5296 77.1613
lradius 60.7889
lwrist 25.0569
lhand -15.0149 -12.1886
lfingers 7.12502
lthumb 11.1504 17.4951
rfemur -27.4727 -1.62688 17.3842
rtibia 53.2119
rfoot -13.8408 -2.90637
rtoes -26.324
lfemur -21.9226 5.23146 -24.1751
ltibia 50.0165
lfoot -4.0151 -11.1705
ltoes 8.15689
